Chunked.ufo
<glyph name="bracketleft" format="1">
  <advance width="349"/>
  <unicode hex="005B"/>
  <outline>
    <contour>
      <point x="302" y="-81" type="line"/>
      <point x="177" y="-81" type="line"/>
      <point x="177" y="726" type="line"/>
      <point x="302" y="726" type="line"/>
      <point x="302" y="859" type="line"/>
      <point x="32" y="859" type="line"/>
      <point x="32" y="858" type="line"/>
      <point x="31" y="858" type="line"/>
      <point x="31" y="-178" type="line"/>
      <point x="32" y="-178" type="line"/>
      <point x="32" y="-214" type="line"/>
      <point x="302" y="-214" type="line"/>
    </contour>
  </outline>
</glyph>
<glyph name="bracketright" format="1">
  <advance width="312"/>
  <unicode hex="005D"/>
  <outline>
    <contour>
      <point x="30" y="725" type="line"/>
      <point x="155" y="725" type="line"/>
      <point x="155" y="-82" type="line"/>
      <point x="30" y="-82" type="line"/>
      <point x="30" y="-215" type="line"/>
      <point x="300" y="-215" type="line"/>
      <point x="300" y="-214" type="line"/>
      <point x="301" y="-214" type="line"/>
      <point x="301" y="822" type="line"/>
      <point x="300" y="822" type="line"/>
      <point x="300" y="858" type="line"/>
      <point x="30" y="858" type="line"/>
    </contour>
  </outline>
</glyph>
<glyph name="grave" format="1">
  <advance width="500"/>
  <unicode hex="0060"/>
  <outline>
    <contour>
      <point x="257.0" y="750.0" type="line"/>
      <point x="372.0" y="563.0" type="line"/>
      <point x="244.0" y="562.0" type="line"/>
      <point x="77.0" y="749.0" type="line"/>
    </contour>
  </outline>
</glyph>
<glyph name="d" format="1">
  <advance width="634"/>
  <unicode hex="0064"/>
  <outline>
    <contour>
      <point x="368.0" y="472.0" type="line"/>
      <point x="349.0" y="484.0"/>
      <point x="313.0" y="510.0"/>
      <point x="242.0" y="510.0" type="curve" smooth="yes"/>
      <point x="119.0" y="510.0"/>
      <point x="10.0" y="411.0"/>
      <point x="10.0" y="255.0" type="curve" smooth="yes"/>
      <point x="10.0" y="116.0"/>
      <point x="101.0" y="-9.0"/>
      <point x="242.0" y="-9.0" type="curve" smooth="yes"/>
      <point x="311.0" y="-9.0"/>
      <point x="355.0" y="25.0"/>
      <point x="368.0" y="37.0" type="curve"/>
      <point x="385.0" y="0.0" type="line"/>
      <point x="619.0" y="0.0" type="line"/>
      <point x="619.0" y="130.0" type="line"/>
      <point x="571.0" y="130.0" type="line"/>
      <point x="571.0" y="750.0" type="line"/>
      <point x="322.0" y="750.0" type="line"/>
      <point x="322.0" y="620.0" type="line"/>
      <point x="368.0" y="620.0" type="line"/>
    </contour>
    <contour>
      <point x="225.0" y="331.0"/>
      <point x="254.0" y="380.0"/>
      <point x="296.0" y="380.0" type="curve" smooth="yes"/>
      <point x="334.0" y="380.0"/>
      <point x="368.0" y="328.0"/>
      <point x="368.0" y="260.0" type="curve"/>
      <point x="372.0" y="181.0"/>
      <point x="336.0" y="132.0"/>
      <point x="297.0" y="132.0" type="curve" smooth="yes"/>
      <point x="253.0" y="132.0"/>
      <point x="225.0" y="195.0"/>
      <point x="225.0" y="255.0" type="curve" smooth="yes"/>
    </contour>
  </outline>
</glyph>
<glyph name="acute" format="1">
  <advance width="440"/>
  <unicode hex="00B4"/>
  <outline>
    <contour>
      <point x="208" y="749" type="line"/>
      <point x="94" y="562" type="line"/>
      <point x="221" y="561" type="line"/>
      <point x="388" y="749" type="line"/>
    </contour>
  </outline>
</glyph>
<glyph name="Agrave" format="1">
  <advance width="823"/>
  <unicode hex="00C0"/>
  <outline>
    <contour>
      <point x="477" y="764" type="line"/>
      <point x="393" y="715" type="line"/>
      <point x="217" y="906" type="line"/>
      <point x="349" y="983" type="line"/>
    </contour>
    <contour>
      <point x="808.0" y="131.0" type="line"/>
      <point x="738.0" y="131.0" type="line"/>
      <point x="561.0" y="699.0" type="line"/>
      <point x="177.0" y="699.0" type="line"/>
      <point x="177.0" y="570.0" type="line"/>
      <point x="218.0" y="570.0" type="line"/>
      <point x="83.0" y="131.0" type="line"/>
      <point x="15.0" y="131.0" type="line"/>
      <point x="15.0" y="0.0" type="line"/>
      <point x="333.0" y="0.0" type="line"/>
      <point x="333.0" y="131.0" type="line"/>
      <point x="255.0" y="131.0" type="line"/>
      <point x="276.0" y="199.0" type="line"/>
      <point x="481.0" y="199.0" type="line"/>
      <point x="502.0" y="131.0" type="line"/>
      <point x="407.0" y="131.0" type="line"/>
      <point x="407.0" y="0.0" type="line"/>
      <point x="808.0" y="0.0" type="line"/>
    </contour>
    <contour>
      <point x="378.0" y="535.0" type="line"/>
      <point x="444.0" y="319.0" type="line"/>
      <point x="313.0" y="319.0" type="line"/>
    </contour>
  </outline>
</glyph>
<glyph name="Aacute" format="1">
  <advance width="823"/>
  <unicode hex="00C1"/>
  <outline>
    <contour>
      <point x="401" y="984" type="line"/>
      <point x="281" y="757" type="line"/>
      <point x="369" y="712" type="line"/>
      <point x="537" y="915" type="line"/>
    </contour>
    <contour>
      <point x="808.0" y="131.0" type="line"/>
      <point x="738.0" y="131.0" type="line"/>
      <point x="561.0" y="699.0" type="line"/>
      <point x="177.0" y="699.0" type="line"/>
      <point x="177.0" y="570.0" type="line"/>
      <point x="218.0" y="570.0" type="line"/>
      <point x="83.0" y="131.0" type="line"/>
      <point x="15.0" y="131.0" type="line"/>
      <point x="15.0" y="0.0" type="line"/>
      <point x="333.0" y="0.0" type="line"/>
      <point x="333.0" y="131.0" type="line"/>
      <point x="255.0" y="131.0" type="line"/>
      <point x="276.0" y="199.0" type="line"/>
      <point x="481.0" y="199.0" type="line"/>
      <point x="502.0" y="131.0" type="line"/>
      <point x="407.0" y="131.0" type="line"/>
      <point x="407.0" y="0.0" type="line"/>
      <point x="808.0" y="0.0" type="line"/>
    </contour>
    <contour>
      <point x="378.0" y="535.0" type="line"/>
      <point x="444.0" y="319.0" type="line"/>
      <point x="313.0" y="319.0" type="line"/>
    </contour>
  </outline>
</glyph>
<glyph name="Adieresis" format="1">
  <advance width="823.0"/>
  <unicode hex="00C4"/>
  <outline>
    <contour>
      <point x="295" y="723" type="curve"/>
      <point x="345" y="723"/>
      <point x="386" y="762"/>
      <point x="386" y="812" type="curve"/>
      <point x="386" y="861"/>
      <point x="345" y="902"/>
      <point x="295" y="902" type="curve"/>
      <point x="246" y="902"/>
      <point x="207" y="861"/>
      <point x="207" y="812" type="curve"/>
      <point x="207" y="762"/>
      <point x="246" y="723"/>
    </contour>
    <contour>
      <point x="503" y="723" type="curve"/>
      <point x="553" y="723"/>
      <point x="594" y="762"/>
      <point x="594" y="812" type="curve"/>
      <point x="594" y="861"/>
      <point x="553" y="902"/>
      <point x="503" y="902" type="curve"/>
      <point x="454" y="902"/>
      <point x="415" y="861"/>
      <point x="415" y="812" type="curve"/>
      <point x="415" y="762"/>
      <point x="454" y="723"/>
    </contour>
    <contour>
      <point x="378.0" y="535.0" type="line"/>
      <point x="444.0" y="319.0" type="line"/>
      <point x="313.0" y="319.0" type="line"/>
    </contour>
    <contour>
      <point x="808.0" y="131.0" type="line"/>
      <point x="738.0" y="131.0" type="line"/>
      <point x="561.0" y="699.0" type="line"/>
      <point x="177.0" y="699.0" type="line"/>
      <point x="177.0" y="570.0" type="line"/>
      <point x="218.0" y="570.0" type="line"/>
      <point x="83.0" y="131.0" type="line"/>
      <point x="15.0" y="131.0" type="line"/>
      <point x="15.0" y="0.0" type="line"/>
      <point x="333.0" y="0.0" type="line"/>
      <point x="333.0" y="131.0" type="line"/>
      <point x="255.0" y="131.0" type="line"/>
      <point x="276.0" y="199.0" type="line"/>
      <point x="481.0" y="199.0" type="line"/>
      <point x="502.0" y="131.0" type="line"/>
      <point x="407.0" y="131.0" type="line"/>
      <point x="407.0" y="0.0" type="line"/>
      <point x="808.0" y="0.0" type="line"/>
    </contour>
  </outline>
</glyph>
<glyph name="Aring" format="1">
  <advance width="835.0"/>
  <unicode hex="00C5"/>
  <outline>
    <contour>
      <point x="386" y="910" type="curve" smooth="yes"/>
      <point x="326" y="910"/>
      <point x="280" y="870"/>
      <point x="279" y="813" type="curve"/>
      <point x="279" y="755"/>
      <point x="326" y="714"/>
      <point x="386" y="714" type="curve" smooth="yes"/>
      <point x="444" y="714"/>
      <point x="494" y="755"/>
      <point x="494" y="814" type="curve" smooth="yes"/>
      <point x="494" y="871"/>
      <point x="444" y="910"/>
    </contour>
    <contour>
      <point x="387" y="862" type="curve" smooth="yes"/>
      <point x="417" y="861"/>
      <point x="440" y="843"/>
      <point x="440" y="815" type="curve" smooth="yes"/>
      <point x="440" y="787"/>
      <point x="417" y="767"/>
      <point x="387" y="767" type="curve" smooth="yes"/>
      <point x="358" y="767"/>
      <point x="336" y="787"/>
      <point x="336" y="814" type="curve"/>
      <point x="337" y="843"/>
      <point x="358" y="862"/>
    </contour>
    <contour>
      <point x="378.0" y="535.0" type="line"/>
      <point x="444.0" y="319.0" type="line"/>
      <point x="313.0" y="319.0" type="line"/>
    </contour>
    <contour>
      <point x="808.0" y="131.0" type="line"/>
      <point x="738.0" y="131.0" type="line"/>
      <point x="561.0" y="699.0" type="line"/>
      <point x="177.0" y="699.0" type="line"/>
      <point x="177.0" y="570.0" type="line"/>
      <point x="218.0" y="570.0" type="line"/>
      <point x="83.0" y="131.0" type="line"/>
      <point x="15.0" y="131.0" type="line"/>
      <point x="15.0" y="0.0" type="line"/>
      <point x="333.0" y="0.0" type="line"/>
      <point x="333.0" y="131.0" type="line"/>
      <point x="255.0" y="131.0" type="line"/>
      <point x="276.0" y="199.0" type="line"/>
      <point x="481.0" y="199.0" type="line"/>
      <point x="502.0" y="131.0" type="line"/>
      <point x="407.0" y="131.0" type="line"/>
      <point x="407.0" y="0.0" type="line"/>
      <point x="808.0" y="0.0" type="line"/>
    </contour>
  </outline>
</glyph>
<glyph name="AE" format="1">
  <advance width="1025.0"/>
  <unicode hex="00C6"/>
  <outline>
    <contour>
      <point x="808.0" y="131.0" type="line"/>
      <point x="761.0" y="131.0" type="line"/>
      <point x="636.0" y="112.0" type="line"/>
      <point x="676.0" y="330.0" type="line"/>
      <point x="561.0" y="699.0" type="line"/>
      <point x="236" y="699" type="line"/>
      <point x="236" y="570" type="line"/>
      <point x="307" y="570" type="line"/>
      <point x="73.0" y="131.0" type="line"/>
      <point x="5.0" y="131.0" type="line"/>
      <point x="5.0" y="0.0" type="line"/>
      <point x="323.0" y="0.0" type="line"/>
      <point x="323.0" y="131.0" type="line"/>
      <point x="274" y="130" type="line"/>
      <point x="311" y="200" type="line"/>
      <point x="481.0" y="199.0" type="line"/>
      <point x="502.0" y="131.0" type="line"/>
      <point x="407.0" y="131.0" type="line"/>
      <point x="407.0" y="0.0" type="line"/>
      <point x="808.0" y="0.0" type="line"/>
    </contour>
    <contour>
      <point x="484" y="563" type="line"/>
      <point x="503.0" y="319.0" type="line"/>
      <point x="358" y="319" type="line"/>
    </contour>
    <contour>
      <point x="407.0" y="567.0" type="line"/>
      <point x="480" y="567" type="line"/>
      <point x="480" y="133" type="line"/>
      <point x="407.0" y="133.0" type="line"/>
      <point x="407.0" y="0.0" type="line"/>
      <point x="1010.0" y="0.0" type="line"/>
      <point x="1010.0" y="226.0" type="line"/>
      <point x="837.0" y="226.0" type="line"/>
      <point x="837.0" y="133.0" type="line"/>
      <point x="761.0" y="133.0" type="line"/>
      <point x="677.0" y="133.0" type="line"/>
      <point x="677.0" y="296.0" type="line"/>
      <point x="867.0" y="296.0" type="line"/>
      <point x="867.0" y="429.0" type="line"/>
      <point x="677.0" y="429.0" type="line"/>
      <point x="677.0" y="567.0" type="line"/>
      <point x="837.0" y="567.0" type="line"/>
      <point x="837.0" y="478.0" type="line"/>
      <point x="1010.0" y="478.0" type="line"/>
      <point x="1010.0" y="699.0" type="line"/>
      <point x="407.0" y="699.0" type="line"/>
    </contour>
  </outline>
</glyph>
<glyph name="Egrave" format="1">
  <advance width="653"/>
  <unicode hex="00C8"/>
  <outline>
    <contour>
      <point x="400" y="764" type="line"/>
      <point x="316" y="715" type="line"/>
      <point x="140" y="906" type="line"/>
      <point x="272" y="983" type="line"/>
    </contour>
    <contour>
      <point x="25.0" y="567.0" type="line"/>
      <point x="88.0" y="567.0" type="line"/>
      <point x="88.0" y="133.0" type="line"/>
      <point x="25.0" y="133.0" type="line"/>
      <point x="25.0" y="0.0" type="line"/>
      <point x="628.0" y="0.0" type="line"/>
      <point x="628.0" y="226.0" type="line"/>
      <point x="455.0" y="226.0" type="line"/>
      <point x="455.0" y="133.0" type="line"/>
      <point x="295.0" y="133.0" type="line"/>
      <point x="295.0" y="296.0" type="line"/>
      <point x="485.0" y="296.0" type="line"/>
      <point x="485.0" y="429.0" type="line"/>
      <point x="295.0" y="429.0" type="line"/>
      <point x="295.0" y="567.0" type="line"/>
      <point x="455.0" y="567.0" type="line"/>
      <point x="455.0" y="478.0" type="line"/>
      <point x="628.0" y="478.0" type="line"/>
      <point x="628.0" y="699.0" type="line"/>
      <point x="25.0" y="699.0" type="line"/>
    </contour>
  </outline>
</glyph>
<glyph name="Eacute" format="1">
  <advance width="653"/>
  <unicode hex="00C9"/>
  <outline>
    <contour>
      <point x="320" y="984" type="line"/>
      <point x="200" y="757" type="line"/>
      <point x="288" y="712" type="line"/>
      <point x="456" y="915" type="line"/>
    </contour>
    <contour>
      <point x="25.0" y="567.0" type="line"/>
      <point x="88.0" y="567.0" type="line"/>
      <point x="88.0" y="133.0" type="line"/>
      <point x="25.0" y="133.0" type="line"/>
      <point x="25.0" y="0.0" type="line"/>
      <point x="628.0" y="0.0" type="line"/>
      <point x="628.0" y="226.0" type="line"/>
      <point x="455.0" y="226.0" type="line"/>
      <point x="455.0" y="133.0" type="line"/>
      <point x="295.0" y="133.0" type="line"/>
      <point x="295.0" y="296.0" type="line"/>
      <point x="485.0" y="296.0" type="line"/>
      <point x="485.0" y="429.0" type="line"/>
      <point x="295.0" y="429.0" type="line"/>
      <point x="295.0" y="567.0" type="line"/>
      <point x="455.0" y="567.0" type="line"/>
      <point x="455.0" y="478.0" type="line"/>
      <point x="628.0" y="478.0" type="line"/>
      <point x="628.0" y="699.0" type="line"/>
      <point x="25.0" y="699.0" type="line"/>
    </contour>
  </outline>
</glyph>
<glyph name="Odieresis" format="1">
  <advance width="740.0"/>
  <unicode hex="00D6"/>
  <outline>
    <contour>
      <point x="476" y="743" type="curve"/>
      <point x="526" y="743"/>
      <point x="567" y="782"/>
      <point x="567" y="832" type="curve"/>
      <point x="567" y="881"/>
      <point x="526" y="922"/>
      <point x="476" y="922" type="curve"/>
      <point x="427" y="922"/>
      <point x="388" y="881"/>
      <point x="388" y="832" type="curve"/>
      <point x="388" y="782"/>
      <point x="427" y="743"/>
    </contour>
    <contour>
      <point x="268" y="743" type="curve"/>
      <point x="318" y="743"/>
      <point x="359" y="782"/>
      <point x="359" y="832" type="curve"/>
      <point x="359" y="881"/>
      <point x="318" y="922"/>
      <point x="268" y="922" type="curve"/>
      <point x="219" y="922"/>
      <point x="180" y="881"/>
      <point x="180" y="832" type="curve"/>
      <point x="180" y="782"/>
      <point x="219" y="743"/>
    </contour>
    <contour>
      <point x="309.0" y="139.0"/>
      <point x="262.0" y="222.0"/>
      <point x="262.0" y="353.0" type="curve" smooth="yes"/>
      <point x="262.0" y="477.0"/>
      <point x="304.0" y="565.0"/>
      <point x="365.0" y="564.0" type="curve" smooth="yes"/>
      <point x="442.0" y="564.0"/>
      <point x="475.0" y="467.0"/>
      <point x="475.0" y="346.0" type="curve" smooth="yes"/>
      <point x="475.0" y="222.0"/>
      <point x="436.0" y="139.0"/>
      <point x="373.0" y="139.0" type="curve" smooth="yes"/>
    </contour>
    <contour>
      <point x="599.0" y="-18.0"/>
      <point x="725.0" y="120.0"/>
      <point x="725.0" y="346.0" type="curve" smooth="yes"/>
      <point x="725.0" y="571.0"/>
      <point x="611.0" y="718.0"/>
      <point x="366.0" y="718.0" type="curve" smooth="yes"/>
      <point x="159.0" y="718.0"/>
      <point x="15.0" y="569.0"/>
      <point x="15.0" y="353.0" type="curve" smooth="yes"/>
      <point x="15.0" y="103.0"/>
      <point x="164.0" y="-18.0"/>
      <point x="373.0" y="-18.0" type="curve" smooth="yes"/>
    </contour>
  </outline>
</glyph>
<glyph name="Oslash" format="1">
  <advance width="740.0"/>
  <unicode hex="00D8"/>
  <outline>
    <contour>
      <point x="147" y="0" type="line"/>
      <point x="673" y="698" type="line"/>
      <point x="576" y="698" type="line"/>
      <point x="49" y="0" type="line"/>
    </contour>
    <contour>
      <point x="309.0" y="139.0"/>
      <point x="262.0" y="222.0"/>
      <point x="262.0" y="353.0" type="curve" smooth="yes"/>
      <point x="262.0" y="477.0"/>
      <point x="304.0" y="565.0"/>
      <point x="365.0" y="564.0" type="curve" smooth="yes"/>
      <point x="442.0" y="564.0"/>
      <point x="475.0" y="467.0"/>
      <point x="475.0" y="346.0" type="curve" smooth="yes"/>
      <point x="475.0" y="222.0"/>
      <point x="436.0" y="139.0"/>
      <point x="373.0" y="139.0" type="curve" smooth="yes"/>
    </contour>
    <contour>
      <point x="599.0" y="-18.0"/>
      <point x="725.0" y="120.0"/>
      <point x="725.0" y="346.0" type="curve" smooth="yes"/>
      <point x="725.0" y="571.0"/>
      <point x="611.0" y="718.0"/>
      <point x="366.0" y="718.0" type="curve" smooth="yes"/>
      <point x="159.0" y="718.0"/>
      <point x="15.0" y="569.0"/>
      <point x="15.0" y="353.0" type="curve" smooth="yes"/>
      <point x="15.0" y="103.0"/>
      <point x="164.0" y="-18.0"/>
      <point x="373.0" y="-18.0" type="curve" smooth="yes"/>
    </contour>
  </outline>
</glyph>
<glyph name="aacute" format="1">
  <advance width="600.0"/>
  <unicode hex="00E1"/>
  <outline>
    <contour>
      <point x="228.0" y="111.0"/>
      <point x="205.0" y="130.0"/>
      <point x="205.0" y="158.0" type="curve" smooth="yes"/>
      <point x="205.0" y="189.0"/>
      <point x="223.0" y="211.0"/>
      <point x="263.0" y="211.0" type="curve" smooth="yes"/>
      <point x="305.0" y="211.0"/>
      <point x="319.0" y="187.0"/>
      <point x="322.0" y="182.0" type="curve"/>
      <point x="322.0" y="144.0" type="line"/>
      <point x="313.0" y="129.0"/>
      <point x="288.0" y="111.0"/>
      <point x="258.0" y="111.0" type="curve" smooth="yes"/>
    </contour>
    <contour>
      <point x="78.0" y="342.0" type="line"/>
      <point x="116.0" y="363.0"/>
      <point x="168.0" y="388.0"/>
      <point x="227.0" y="388.0" type="curve" smooth="yes"/>
      <point x="281.0" y="388.0"/>
      <point x="322.0" y="377.0"/>
      <point x="322.0" y="332.0" type="curve" smooth="yes"/>
      <point x="322.0" y="297.0" type="line"/>
      <point x="317.0" y="303.0"/>
      <point x="282.0" y="332.0"/>
      <point x="223.0" y="332.0" type="curve" smooth="yes"/>
      <point x="110.0" y="332.0"/>
      <point x="15.0" y="261.0"/>
      <point x="15.0" y="148.0" type="curve" smooth="yes"/>
      <point x="15.0" y="32.0"/>
      <point x="117.0" y="-19.0"/>
      <point x="212.0" y="-19.0" type="curve" smooth="yes"/>
      <point x="248.0" y="-19.0"/>
      <point x="310.0" y="-6.0"/>
      <point x="347.0" y="45.0" type="curve"/>
      <point x="371.0" y="0.0" type="line"/>
      <point x="585.0" y="0.0" type="line"/>
      <point x="585.0" y="128.0" type="line"/>
      <point x="525.0" y="128.0" type="line"/>
      <point x="525.0" y="323.0" type="line" smooth="yes"/>
      <point x="525.0" y="484.0"/>
      <point x="374.0" y="529.0"/>
      <point x="254.0" y="529.0" type="curve" smooth="yes"/>
      <point x="162.0" y="529.0"/>
      <point x="76.0" y="482.0"/>
      <point x="36.0" y="458.0" type="curve"/>
    </contour>
    <contour>
      <point x="309" y="815" type="line"/>
      <point x="189" y="588" type="line"/>
      <point x="277" y="543" type="line"/>
      <point x="445" y="746" type="line"/>
    </contour>
  </outline>
</glyph>
<glyph name="aring" format="1">
  <advance width="611.0"/>
  <unicode hex="00E5"/>
  <outline>
    <contour>
      <point x="285" y="556" type="curve"/>
      <point x="339" y="556"/>
      <point x="384" y="599"/>
      <point x="384" y="653" type="curve"/>
      <point x="384" y="707"/>
      <point x="339" y="752"/>
      <point x="285" y="752" type="curve"/>
      <point x="231" y="752"/>
      <point x="188" y="707"/>
      <point x="188" y="653" type="curve"/>
      <point x="188" y="599"/>
      <point x="231" y="556"/>
    </contour>
    <contour>
      <point x="285" y="614" type="curve"/>
      <point x="263" y="614"/>
      <point x="246" y="632"/>
      <point x="246" y="654" type="curve"/>
      <point x="246" y="676"/>
      <point x="263" y="693"/>
      <point x="285" y="693" type="curve"/>
      <point x="307" y="693"/>
      <point x="325" y="676"/>
      <point x="325" y="654" type="curve"/>
      <point x="325" y="632"/>
      <point x="307" y="614"/>
    </contour>
    <contour>
      <point x="78.0" y="342.0" type="line"/>
      <point x="116.0" y="363.0"/>
      <point x="168.0" y="388.0"/>
      <point x="227.0" y="388.0" type="curve" smooth="yes"/>
      <point x="281.0" y="388.0"/>
      <point x="322.0" y="377.0"/>
      <point x="322.0" y="332.0" type="curve" smooth="yes"/>
      <point x="322.0" y="297.0" type="line"/>
      <point x="317.0" y="303.0"/>
      <point x="282.0" y="332.0"/>
      <point x="223.0" y="332.0" type="curve" smooth="yes"/>
      <point x="110.0" y="332.0"/>
      <point x="15.0" y="261.0"/>
      <point x="15.0" y="148.0" type="curve" smooth="yes"/>
      <point x="15.0" y="32.0"/>
      <point x="117.0" y="-19.0"/>
      <point x="212.0" y="-19.0" type="curve" smooth="yes"/>
      <point x="248.0" y="-19.0"/>
      <point x="310.0" y="-6.0"/>
      <point x="347.0" y="45.0" type="curve"/>
      <point x="371.0" y="0.0" type="line"/>
      <point x="585.0" y="0.0" type="line"/>
      <point x="585.0" y="128.0" type="line"/>
      <point x="525.0" y="128.0" type="line"/>
      <point x="525.0" y="323.0" type="line" smooth="yes"/>
      <point x="525.0" y="484.0"/>
      <point x="374.0" y="529.0"/>
      <point x="254.0" y="529.0" type="curve" smooth="yes"/>
      <point x="162.0" y="529.0"/>
      <point x="76.0" y="482.0"/>
      <point x="36.0" y="458.0" type="curve"/>
    </contour>
    <contour>
      <point x="228.0" y="111.0"/>
      <point x="205.0" y="130.0"/>
      <point x="205.0" y="158.0" type="curve" smooth="yes"/>
      <point x="205.0" y="189.0"/>
      <point x="223.0" y="211.0"/>
      <point x="263.0" y="211.0" type="curve" smooth="yes"/>
      <point x="305.0" y="211.0"/>
      <point x="319.0" y="187.0"/>
      <point x="322.0" y="182.0" type="curve"/>
      <point x="322.0" y="144.0" type="line"/>
      <point x="313.0" y="129.0"/>
      <point x="288.0" y="111.0"/>
      <point x="258.0" y="111.0" type="curve" smooth="yes"/>
    </contour>
  </outline>
</glyph>
<glyph name="ae" format="1">
  <advance width="862.0"/>
  <unicode hex="00E6"/>
  <outline>
    <contour>
      <point x="674" y="299" type="curve"/>
      <point x="523" y="299" type="line"/>
      <point x="525" y="324"/>
      <point x="539" y="379"/>
      <point x="600" y="379" type="curve" smooth="yes"/>
      <point x="664" y="379"/>
      <point x="673" y="337"/>
    </contour>
    <contour>
      <point x="205" y="158" type="curve" smooth="yes"/>
      <point x="205" y="189"/>
      <point x="223" y="211"/>
      <point x="263" y="211" type="curve" smooth="yes"/>
      <point x="305" y="211"/>
      <point x="319" y="187"/>
      <point x="322" y="182" type="curve"/>
      <point x="322" y="144" type="line"/>
      <point x="313" y="129"/>
      <point x="288" y="111"/>
      <point x="258" y="111" type="curve" smooth="yes"/>
      <point x="228" y="111"/>
      <point x="205" y="130"/>
    </contour>
    <contour>
      <point x="589" y="-18" type="curve" smooth="yes"/>
      <point x="693" y="-18"/>
      <point x="773" y="5"/>
      <point x="847" y="69" type="curve"/>
      <point x="763" y="166" type="line"/>
      <point x="709" y="121"/>
      <point x="657" y="118"/>
      <point x="623" y="118" type="curve" smooth="yes"/>
      <point x="539" y="118"/>
      <point x="526" y="173"/>
      <point x="520" y="200" type="curve"/>
      <point x="835" y="200" type="line"/>
      <point x="856" y="257"/>
      <point x="845" y="334"/>
      <point x="833" y="369" type="curve" smooth="yes"/>
      <point x="804" y="453"/>
      <point x="713" y="514"/>
      <point x="594" y="514" type="curve" smooth="yes"/>
      <point x="538" y="514"/>
      <point x="487" y="501"/>
      <point x="445" y="476" type="curve"/>
      <point x="391" y="510"/>
      <point x="318" y="519"/>
      <point x="254" y="519" type="curve" smooth="yes"/>
      <point x="162" y="519"/>
      <point x="76" y="473"/>
      <point x="36" y="449" type="curve"/>
      <point x="78" y="342" type="line"/>
      <point x="116" y="363"/>
      <point x="168" y="388"/>
      <point x="227" y="388" type="curve" smooth="yes"/>
      <point x="281" y="388"/>
      <point x="322" y="377"/>
      <point x="322" y="332" type="curve" smooth="yes"/>
      <point x="322" y="297" type="line"/>
      <point x="317" y="303"/>
      <point x="282" y="332"/>
      <point x="223" y="332" type="curve" smooth="yes"/>
      <point x="110" y="332"/>
      <point x="15" y="261"/>
      <point x="15" y="148" type="curve" smooth="yes"/>
      <point x="15" y="32"/>
      <point x="117" y="-19"/>
      <point x="212" y="-19" type="curve" smooth="yes"/>
      <point x="248" y="-19"/>
      <point x="336" y="-7"/>
      <point x="381" y="76" type="curve"/>
      <point x="433" y="11"/>
      <point x="514" y="-18"/>
    </contour>
  </outline>
</glyph>
<glyph name="egrave" format="1">
  <advance width="542.0"/>
  <unicode hex="00E8"/>
  <outline>
    <contour>
      <point x="212" y="811" type="line"/>
      <point x="340" y="592" type="line"/>
      <point x="256" y="543" type="line"/>
      <point x="80" y="734" type="line"/>
    </contour>
    <contour>
      <point x="344.0" y="379.0"/>
      <point x="353.0" y="337.0"/>
      <point x="354.0" y="299.0" type="curve"/>
      <point x="203.0" y="299.0" type="line"/>
      <point x="205.0" y="324.0"/>
      <point x="219.0" y="379.0"/>
      <point x="280.0" y="379.0" type="curve" smooth="yes"/>
    </contour>
    <contour>
      <point x="443.0" y="166.0" type="line"/>
      <point x="389.0" y="121.0"/>
      <point x="337.0" y="118.0"/>
      <point x="303.0" y="118.0" type="curve" smooth="yes"/>
      <point x="219.0" y="118.0"/>
      <point x="206.0" y="173.0"/>
      <point x="200.0" y="200.0" type="curve"/>
      <point x="515.0" y="200.0" type="line"/>
      <point x="536.0" y="257.0"/>
      <point x="525.0" y="334.0"/>
      <point x="513.0" y="369.0" type="curve" smooth="yes"/>
      <point x="484.0" y="453.0"/>
      <point x="393.0" y="514.0"/>
      <point x="274.0" y="514.0" type="curve" smooth="yes"/>
      <point x="123.0" y="514.0"/>
      <point x="5.0" y="417.0"/>
      <point x="5.0" y="253.0" type="curve" smooth="yes"/>
      <point x="5.0" y="61.0"/>
      <point x="145.0" y="-18.0"/>
      <point x="269.0" y="-18.0" type="curve" smooth="yes"/>
      <point x="373.0" y="-18.0"/>
      <point x="453.0" y="5.0"/>
      <point x="527.0" y="69.0" type="curve"/>
    </contour>
  </outline>
</glyph>
<glyph name="igrave" format="1">
  <advance width="329.0"/>
  <unicode hex="00EC"/>
  <outline>
    <contour>
      <point x="121.0" y="811.0" type="line"/>
      <point x="249.0" y="592.0" type="line"/>
      <point x="165.0" y="543.0" type="line"/>
      <point x="-11.0" y="734.0" type="line"/>
    </contour>
    <contour>
      <point x="305" y="131" type="line"/>
      <point x="257" y="131" type="line"/>
      <point x="257" y="500" type="line"/>
      <point x="25" y="500" type="line"/>
      <point x="25" y="370" type="line"/>
      <point x="67" y="370" type="line"/>
      <point x="67" y="131" type="line"/>
      <point x="25" y="131" type="line"/>
      <point x="25" y="0" type="line"/>
      <point x="305" y="0" type="line"/>
    </contour>
  </outline>
</glyph>
<glyph name="iacute" format="1">
  <advance width="330.0"/>
  <unicode hex="00ED"/>
  <outline>
    <contour>
      <point x="168" y="815" type="line"/>
      <point x="48" y="588" type="line"/>
      <point x="136" y="543" type="line"/>
      <point x="304" y="746" type="line"/>
    </contour>
    <contour>
      <point x="305.0" y="131.0" type="line"/>
      <point x="257.0" y="131.0" type="line"/>
      <point x="257.0" y="500.0" type="line"/>
      <point x="25.0" y="500.0" type="line"/>
      <point x="25.0" y="370.0" type="line"/>
      <point x="67.0" y="370.0" type="line"/>
      <point x="67.0" y="131.0" type="line"/>
      <point x="25.0" y="131.0" type="line"/>
      <point x="25.0" y="0.0" type="line"/>
      <point x="305.0" y="0.0" type="line"/>
    </contour>
  </outline>
</glyph>
<glyph name="ograve" format="1">
  <advance width="574.02404938"/>
  <unicode hex="00F2"/>
  <outline>
    <contour>
      <point x="388.0" y="592.0" type="line"/>
      <point x="304.0" y="543.0" type="line"/>
      <point x="128.0" y="734.0" type="line"/>
      <point x="260.0" y="811.0" type="line"/>
    </contour>
    <contour>
      <point x="442.0" y="-13.0"/>
      <point x="565.0" y="82.0"/>
      <point x="563.0" y="248.0" type="curve" smooth="yes"/>
      <point x="560.0" y="415.0"/>
      <point x="443.0" y="510.0"/>
      <point x="285.0" y="512.0" type="curve" smooth="yes"/>
      <point x="147.0" y="512.0"/>
      <point x="12.0" y="419.0"/>
      <point x="11.0" y="252.0" type="curve" smooth="yes"/>
      <point x="9.0" y="75.0"/>
      <point x="147.0" y="-13.0"/>
      <point x="290.0" y="-13.0" type="curve" smooth="yes"/>
    </contour>
    <contour>
      <point x="248.0" y="115.0"/>
      <point x="216.0" y="169.0"/>
      <point x="216.0" y="251.0" type="curve" smooth="yes"/>
      <point x="216.0" y="324.0"/>
      <point x="246.0" y="382.0"/>
      <point x="285.0" y="382.0" type="curve" smooth="yes"/>
      <point x="332.0" y="381.0"/>
      <point x="358.0" y="323.0"/>
      <point x="358.0" y="248.0" type="curve" smooth="yes"/>
      <point x="358.0" y="173.0"/>
      <point x="333.0" y="115.0"/>
      <point x="290.0" y="115.0" type="curve" smooth="yes"/>
    </contour>
  </outline>
</glyph>
<glyph name="oacute" format="1">
  <advance width="574.02404938"/>
  <unicode hex="00F3"/>
  <outline>
    <contour>
      <point x="248.0" y="115.0"/>
      <point x="216.0" y="169.0"/>
      <point x="216.0" y="251.0" type="curve" smooth="yes"/>
      <point x="216.0" y="324.0"/>
      <point x="246.0" y="382.0"/>
      <point x="285.0" y="382.0" type="curve" smooth="yes"/>
      <point x="332.0" y="381.0"/>
      <point x="358.0" y="323.0"/>
      <point x="358.0" y="248.0" type="curve" smooth="yes"/>
      <point x="358.0" y="173.0"/>
      <point x="333.0" y="115.0"/>
      <point x="290.0" y="115.0" type="curve" smooth="yes"/>
    </contour>
    <contour>
      <point x="442.0" y="-13.0"/>
      <point x="565.0" y="82.0"/>
      <point x="563.0" y="248.0" type="curve" smooth="yes"/>
      <point x="560.0" y="415.0"/>
      <point x="443.0" y="510.0"/>
      <point x="285.0" y="512.0" type="curve" smooth="yes"/>
      <point x="147.0" y="512.0"/>
      <point x="12.0" y="419.0"/>
      <point x="11.0" y="252.0" type="curve" smooth="yes"/>
      <point x="9.0" y="75.0"/>
      <point x="147.0" y="-13.0"/>
      <point x="290.0" y="-13.0" type="curve" smooth="yes"/>
    </contour>
    <contour>
      <point x="309.0" y="815.0" type="line"/>
      <point x="189.0" y="588.0" type="line"/>
      <point x="277.0" y="543.0" type="line"/>
      <point x="445.0" y="746.0" type="line"/>
    </contour>
  </outline>
</glyph>
<glyph name="odieresis" format="1">
  <advance width="574.02404938"/>
  <unicode hex="00F6"/>
  <outline>
    <contour>
      <point x="177" y="555" type="curve"/>
      <point x="227" y="555"/>
      <point x="268" y="594"/>
      <point x="268" y="644" type="curve"/>
      <point x="268" y="693"/>
      <point x="227" y="734"/>
      <point x="177" y="734" type="curve"/>
      <point x="128" y="734"/>
      <point x="89" y="693"/>
      <point x="89" y="644" type="curve"/>
      <point x="89" y="594"/>
      <point x="128" y="555"/>
    </contour>
    <contour>
      <point x="385" y="555" type="curve"/>
      <point x="435" y="555"/>
      <point x="476" y="594"/>
      <point x="476" y="644" type="curve"/>
      <point x="476" y="693"/>
      <point x="435" y="734"/>
      <point x="385" y="734" type="curve"/>
      <point x="336" y="734"/>
      <point x="297" y="693"/>
      <point x="297" y="644" type="curve"/>
      <point x="297" y="594"/>
      <point x="336" y="555"/>
    </contour>
    <contour>
      <point x="248.0" y="115.0"/>
      <point x="216.0" y="169.0"/>
      <point x="216.0" y="251.0" type="curve" smooth="yes"/>
      <point x="216.0" y="324.0"/>
      <point x="246.0" y="382.0"/>
      <point x="285.0" y="382.0" type="curve" smooth="yes"/>
      <point x="332.0" y="381.0"/>
      <point x="358.0" y="323.0"/>
      <point x="358.0" y="248.0" type="curve" smooth="yes"/>
      <point x="358.0" y="173.0"/>
      <point x="333.0" y="115.0"/>
      <point x="290.0" y="115.0" type="curve" smooth="yes"/>
    </contour>
    <contour>
      <point x="442.0" y="-13.0"/>
      <point x="565.0" y="82.0"/>
      <point x="563.0" y="248.0" type="curve" smooth="yes"/>
      <point x="560.0" y="415.0"/>
      <point x="443.0" y="510.0"/>
      <point x="285.0" y="512.0" type="curve" smooth="yes"/>
      <point x="147.0" y="512.0"/>
      <point x="12.0" y="419.0"/>
      <point x="11.0" y="252.0" type="curve" smooth="yes"/>
      <point x="9.0" y="75.0"/>
      <point x="147.0" y="-13.0"/>
      <point x="290.0" y="-13.0" type="curve" smooth="yes"/>
    </contour>
  </outline>
</glyph>
<glyph name="oslash" format="1">
  <advance width="574"/>
  <unicode hex="00F8"/>
  <outline>
    <contour>
      <point x="98" y="-26" type="line"/>
      <point x="543.0" y="519.0" type="line"/>
      <point x="465.0" y="519.0" type="line"/>
      <point x="19" y="-26" type="line"/>
    </contour>
    <component base="o"/>
  </outline>
</glyph>
<glyph name="udieresis" format="1">
  <advance width="631.0"/>
  <unicode hex="00FC"/>
  <outline>
    <contour>
      <point x="385.0" y="555.0" type="curve"/>
      <point x="435.0" y="555.0"/>
      <point x="476.0" y="594.0"/>
      <point x="476.0" y="644.0" type="curve"/>
      <point x="476.0" y="693.0"/>
      <point x="435.0" y="734.0"/>
      <point x="385.0" y="734.0" type="curve"/>
      <point x="336.0" y="734.0"/>
      <point x="297.0" y="693.0"/>
      <point x="297.0" y="644.0" type="curve"/>
      <point x="297.0" y="594.0"/>
      <point x="336.0" y="555.0"/>
    </contour>
    <contour>
      <point x="177.0" y="555.0" type="curve"/>
      <point x="227.0" y="555.0"/>
      <point x="268.0" y="594.0"/>
      <point x="268.0" y="644.0" type="curve"/>
      <point x="268.0" y="693.0"/>
      <point x="227.0" y="734.0"/>
      <point x="177.0" y="734.0" type="curve"/>
      <point x="128.0" y="734.0"/>
      <point x="89.0" y="693.0"/>
      <point x="89.0" y="644.0" type="curve"/>
      <point x="89.0" y="594.0"/>
      <point x="128.0" y="555.0"/>
    </contour>
    <contour>
      <point x="15.0" y="368.0" type="line"/>
      <point x="57.0" y="368.0" type="line"/>
      <point x="57.0" y="230.0" type="line" smooth="yes"/>
      <point x="57.0" y="64.0"/>
      <point x="107.0" y="-14.0"/>
      <point x="258.0" y="-14.0" type="curve" smooth="yes"/>
      <point x="343.0" y="-14.0"/>
      <point x="378.0" y="38.0"/>
      <point x="400.0" y="63.0" type="curve"/>
      <point x="427.0" y="0.0" type="line"/>
      <point x="616.0" y="0.0" type="line"/>
      <point x="616.0" y="133.0" type="line"/>
      <point x="567.0" y="133.0" type="line"/>
      <point x="567.0" y="500.0" type="line"/>
      <point x="308.0" y="500.0" type="line"/>
      <point x="308.0" y="368.0" type="line"/>
      <point x="374.0" y="368.0" type="line"/>
      <point x="374.0" y="209.0" type="line" smooth="yes"/>
      <point x="374.0" y="164.0"/>
      <point x="346.0" y="133.0"/>
      <point x="311.0" y="133.0" type="curve" smooth="yes"/>
      <point x="270.0" y="133.0"/>
      <point x="257.0" y="173.0"/>
      <point x="257.0" y="259.0" type="curve" smooth="yes"/>
      <point x="257.0" y="500.0" type="line"/>
      <point x="15.0" y="500.0" type="line"/>
    </contour>
  </outline>
</glyph>
